<svg width="336" height="203" viewBox="0 0 336 203" fill="none" xmlns="http://www.w3.org/2000/svg">
<rect width="336" height="202.154" fill="#FFD4D0"/>
<g clip-path="url(#clip0_302_405)">
<path d="M146.282 129.268H146.238C146.009 129.27 145.781 129.255 145.555 129.225C144.169 129.058 142.893 128.389 141.967 127.344C141.041 126.299 140.53 124.951 140.53 123.555C140.53 122.158 141.041 120.81 141.967 119.766C142.893 118.721 144.169 118.052 145.555 117.885V105.918H125.832V135.063H139.281C139.389 134.73 139.488 134.391 139.604 134.06C140.093 132.65 141.276 131.998 142.46 131.998C144.007 131.998 145.553 133.108 145.553 135.063H150.161V133.137C150.159 132.109 149.749 131.124 149.022 130.399C148.295 129.674 147.309 129.267 146.282 129.268ZM140.408 117.333L140.102 117.746L140.064 117.791C137.226 121.53 135.691 126.096 135.694 130.791V132.789C134.623 132.79 133.574 132.489 132.666 131.921C131.759 131.354 131.029 130.542 130.56 129.579C130.091 128.616 129.902 127.541 130.015 126.475C130.128 125.41 130.537 124.398 131.197 123.555L131.285 123.447C132.71 121.577 133.816 119.484 134.558 117.252C135.308 115.026 135.691 112.693 135.692 110.344V108.401C136.73 108.401 137.748 108.684 138.638 109.22C139.527 109.756 140.253 110.524 140.739 111.442C141.224 112.36 141.451 113.394 141.393 114.431C141.335 115.468 140.996 116.47 140.412 117.329L140.408 117.333Z" fill="#FC3314"/>
<path d="M82.3554 30.0001H72.9592V58.332H82.3554V53.0946C82.3554 53.0946 78.9864 51.5532 77.7911 46.618C77.7911 46.618 82.7621 45.1899 85.4429 51.2801C85.3857 53.4098 85.0038 55.7533 84.1656 58.3342H91.7483C91.7483 58.3342 95.6362 42.487 82.3554 30.0001ZM77.5095 45.0312H77.503C77.2085 42.6694 77.3898 39.674 78.4675 35.9089C78.4675 35.9089 80.4891 37.3057 82.3511 40.1435C83.7873 42.311 84.751 44.7568 85.1796 47.3218C85.0167 47.1491 81.9239 43.859 77.5095 45.0312Z" fill="#FC3314"/>
<path d="M121.134 38.8601V35.3077C121.134 34.6107 120.997 33.9205 120.731 33.2765C120.464 32.6325 120.074 32.0473 119.581 31.5544C119.089 31.0615 118.504 30.6705 117.86 30.4038C117.217 30.1371 116.527 29.9999 115.83 30.0001H101.272V58.332H115.836C116.532 58.3322 117.222 58.195 117.865 57.9284C118.509 57.6618 119.094 57.2709 119.586 56.7781C120.079 56.2853 120.469 55.7003 120.736 55.0564C121.002 54.4125 121.139 53.7224 121.139 53.0255V49.4731C121.139 48.7762 121.002 48.0861 120.736 47.4422C120.469 46.7984 120.079 46.2133 119.586 45.7205C119.094 45.2277 118.509 44.8369 117.865 44.5702C117.222 44.3036 116.532 44.1665 115.836 44.1666C117.241 44.1655 118.589 43.6058 119.583 42.6108C120.576 41.6157 121.134 40.2666 121.134 38.8601ZM117.308 49.9243V50.4252C117.309 50.6171 117.271 50.8073 117.198 50.9847C117.125 51.1622 117.018 51.3234 116.882 51.4592C116.746 51.5949 116.585 51.7024 116.408 51.7756C116.231 51.8488 116.041 51.8862 115.849 51.8857C115.181 51.8857 114.541 52.151 114.069 52.6232C113.597 53.0955 113.332 53.7361 113.332 54.404V56.1311H110.802V47.0044H114.39C114.774 47.0037 115.153 47.0788 115.508 47.2253C115.862 47.3717 116.184 47.5868 116.455 47.8581C116.726 48.1293 116.941 48.4515 117.088 48.8061C117.234 49.1607 117.309 49.5407 117.308 49.9243ZM117.308 39.0479C117.306 39.8212 116.998 40.5622 116.451 41.1085C115.904 41.6548 115.163 41.9618 114.39 41.9624H110.802V34.7302L113.332 32.2V34.5683C113.332 35.2361 113.597 35.8765 114.069 36.3487C114.541 36.8209 115.181 37.0863 115.849 37.0866C116.04 37.086 116.23 37.1234 116.408 37.1965C116.585 37.2696 116.746 37.3771 116.882 37.5127C117.017 37.6483 117.125 37.8094 117.198 37.9867C117.271 38.1641 117.309 38.3541 117.308 38.546V39.0479Z" fill="#FC3314"/>
<path d="M83.6082 68.8208V73.6006C86.1426 76.0672 87.8305 79.2741 88.4293 82.7607C87.7746 82.913 87.1045 82.9887 86.4324 82.9863C84.4335 82.9864 82.4907 82.3246 80.9071 81.104C79.3235 79.8834 78.1881 78.1727 77.6781 76.2387C78.3742 73.4607 79.769 70.907 81.73 68.8208H72.5V97.1528H82.2489V92.372C79.9435 90.1286 78.333 87.268 77.6102 84.1326C79.696 83.5461 81.9228 83.7274 83.8863 84.6437C85.8499 85.5599 87.42 87.1503 88.3117 89.1261C87.6773 92.1354 86.2282 94.9121 84.1228 97.1528H93.3517V68.8208H83.6082Z" fill="#FC3314"/>
<path d="M170.556 30.0001H158.009V58.332H170.556C171.469 58.3319 172.373 58.1517 173.217 57.8018C174.06 57.4519 174.827 56.9392 175.472 56.2928C176.118 55.6464 176.63 54.8792 176.979 54.0348C177.328 53.1905 177.507 52.2856 177.506 51.3718V36.9592C177.507 36.0456 177.327 35.1409 176.978 34.2967C176.629 33.4526 176.117 32.6855 175.472 32.0393C174.826 31.3931 174.06 30.8804 173.216 30.5305C172.373 30.1806 171.469 30.0004 170.556 30.0001ZM173.192 44.2994C173.194 45.6239 172.71 46.9031 171.833 47.895C170.844 49.023 170.243 50.4392 170.243 51.9429V56.1343H167.762V34.4992C168.625 34.4966 169.476 34.7029 170.243 35.1004C171.132 35.5563 171.879 36.2493 172.399 37.1029C172.92 37.9565 173.194 38.9375 173.192 39.9374V44.2994Z" fill="#FC3314"/>
<path d="M148.602 35.5743V30.0001H129.63V58.332H148.602V44.1666H145.885C145.281 44.1665 144.682 44.2854 144.124 44.5167C143.566 44.7479 143.059 45.0869 142.632 45.5143C142.204 45.9417 141.865 46.4492 141.634 47.0077C141.403 47.5662 141.284 48.1648 141.284 48.7693L142.875 52.8269C143.02 53.1945 143.072 53.5918 143.028 53.9844C142.984 54.3769 142.845 54.7527 142.623 55.0792C142.401 55.4056 142.102 55.6728 141.753 55.8574C141.404 56.0421 141.015 56.1386 140.62 56.1386H139.381V32.2H141.283V39.756L148.602 35.5743Z" fill="#FC3314"/>
<path d="M197.516 113.003V112.752C197.516 112.619 197.509 112.48 197.496 112.348C197.244 109.541 193.005 109.835 193.005 112.646V115.907C193.005 116.265 193.09 116.617 193.254 116.936C193.417 117.254 193.654 117.528 193.945 117.736C197.727 120.408 200.52 124.256 201.888 128.681L195.515 135.058H182.689V125.149H185.194C185.943 125.15 186.66 125.447 187.189 125.977C187.718 126.506 188.016 127.224 188.016 127.973V128.224C188.016 128.364 188.023 128.496 188.036 128.636C188.287 131.432 192.52 131.141 192.52 128.33V125.069C192.522 124.713 192.437 124.361 192.275 124.044C192.113 123.727 191.877 123.453 191.587 123.246C187.736 120.52 184.911 116.58 183.564 112.056L189.698 105.919H202.836V115.829H200.338C199.967 115.829 199.6 115.756 199.258 115.614C198.915 115.472 198.604 115.264 198.342 115.002C198.08 114.739 197.872 114.428 197.73 114.085C197.588 113.742 197.516 113.374 197.516 113.003Z" fill="#FC3314"/>
<path d="M203.198 39.3664H205.563V30.0001H186.521V58.332H205.563V48.9658H203.198C202.848 48.9658 202.5 49.035 202.177 49.1694C201.853 49.3038 201.558 49.5009 201.311 49.7492C201.063 49.9976 200.867 50.2924 200.733 50.6167C200.599 50.9411 200.531 51.2887 200.532 51.6395V51.8759C200.532 53.0065 200.083 54.0907 199.284 54.8901C198.485 55.6895 197.401 56.1386 196.271 56.1386V45.9369H204.657V43.7381C204.657 43.1549 204.425 42.5956 204.013 42.1833C203.601 41.7709 203.042 41.5393 202.459 41.5393H201.622C201.333 41.5395 201.047 41.5968 200.78 41.7079C200.514 41.8191 200.271 41.9819 200.068 42.1869C199.138 43.1185 197.946 43.7424 196.63 43.7424H196.271V32.2C197.401 32.2 198.485 32.6491 199.284 33.4485C200.083 34.2479 200.532 35.3321 200.532 36.4627V36.698C200.531 37.0484 200.6 37.3955 200.734 37.7193C200.868 38.0431 201.065 38.3373 201.312 38.5851C201.56 38.8329 201.854 39.0295 202.178 39.1635C202.501 39.2976 202.848 39.3665 203.198 39.3664Z" fill="#FC3314"/>
<path d="M231.475 39.3664H233.84V30.0001H214.8V58.332H224.55V56.2088C224.549 55.9976 224.465 55.7951 224.316 55.6458C224.167 55.4965 223.964 55.4125 223.753 55.4122C221.243 55.4122 219.033 53.5264 218.857 51.0145C218.811 50.3658 218.899 49.7146 219.115 49.1013C219.332 48.4881 219.672 47.926 220.115 47.4501C220.558 46.9741 221.094 46.5946 221.69 46.335C222.286 46.0754 222.929 45.9413 223.579 45.9412H224.55H232.935V43.7381C232.935 43.4492 232.878 43.1632 232.768 42.8964C232.657 42.6295 232.495 42.3871 232.291 42.1829C232.087 41.9787 231.844 41.8168 231.578 41.7063C231.311 41.5959 231.025 41.5391 230.736 41.5393H229.899C229.61 41.5395 229.325 41.5968 229.058 41.708C228.791 41.8191 228.549 41.9819 228.346 42.1869C227.415 43.1185 226.224 43.7424 224.908 43.7424H224.55V37.989C224.55 32.7073 220.203 32.2 220.203 32.2H224.548C225.678 32.2 226.762 32.6491 227.561 33.4485C228.36 34.2479 228.809 35.3321 228.809 36.4627V36.698C228.809 37.4057 229.09 38.0844 229.59 38.5848C230.09 39.0852 230.768 39.3664 231.475 39.3664Z" fill="#FC3314"/>
<path d="M259.954 39.3664H262.319V30.0001H243.277V58.332H262.319V44.9384H254.167V46.9105C254.167 47.8295 254.532 48.7108 255.182 49.3606C255.831 50.0105 256.712 50.3755 257.63 50.3755C258.393 50.3755 259.125 50.6788 259.665 51.2187C260.204 51.7586 260.507 52.4909 260.507 53.2544C260.507 54.0179 260.204 54.7501 259.665 55.29C259.125 55.8299 258.393 56.1332 257.63 56.1332H253.027V32.2C254.157 32.2 255.241 32.6491 256.039 33.4485C256.838 34.2479 257.287 35.3321 257.287 36.4627V36.698C257.287 37.4057 257.568 38.0844 258.068 38.5848C258.568 39.0852 259.247 39.3664 259.954 39.3664Z" fill="#FC3314"/>
<path d="M115.68 68.8208H103.421V74.6498C103.421 75.3148 103.685 75.9526 104.155 76.4229C104.625 76.8931 105.263 77.1573 105.927 77.1573V97.1528H118.315C114.39 93.6738 111.519 89.8126 111.519 83.3123C111.52 75.3115 113.379 68.8208 115.68 68.8208Z" fill="#FC3314"/>
<path d="M195.749 97.1528H176.77V68.8208H182.519C183.045 68.8208 183.566 68.9246 184.052 69.1261C184.537 69.3276 184.979 69.623 185.35 69.9954C185.722 70.3677 186.016 70.8097 186.217 71.2961C186.418 71.7824 186.521 72.3036 186.52 72.8299V94.9583H188.686V90.185C188.686 89.6864 188.784 89.1926 188.975 88.7319C189.165 88.2712 189.445 87.8525 189.797 87.4999C190.149 87.1474 190.568 86.8677 191.028 86.677C191.489 86.4864 191.982 86.3884 192.481 86.3886H195.749C194.929 86.3886 194.266 88.8001 194.266 91.7707C194.266 94.7413 194.929 97.1528 195.749 97.1528Z" fill="#FC3314"/>
<path d="M129.63 68.8208V94.9529H126.295C125.761 94.953 125.233 94.8479 124.739 94.6435C124.246 94.4391 123.798 94.1394 123.42 93.7616C123.043 93.3838 122.743 92.9352 122.539 92.4416C122.334 91.9479 122.229 91.4188 122.23 90.8845V89.3981C122.23 88.7777 122.476 88.1828 122.914 87.7441C123.353 87.3054 123.947 87.059 124.567 87.059H126.631V83.3025C126.632 82.7735 126.528 82.2496 126.326 81.7607C126.124 81.2717 125.828 80.8274 125.455 80.4532C125.081 80.0789 124.637 79.782 124.149 79.5795C123.66 79.377 123.137 79.2729 122.608 79.273H119.925V97.1485H139.381V68.8208H129.63Z" fill="#FC3314"/>
<path d="M160.311 81.0195C162.166 81.0195 165.426 81.0195 165.426 77.6614V72.8784C165.426 72.0781 165.621 71.2899 165.996 70.5826C166.37 69.8754 166.912 69.2705 167.573 68.8208H160.311V76.8605C160.311 77.3802 160.105 77.8786 159.738 78.2462C159.371 78.6138 158.873 78.8204 158.353 78.8207V68.8208H148.602V97.1528H158.353V82.3958C164.132 88.1794 161.184 97.1528 161.184 97.1528H167.573C167.573 85.2919 160.311 81.0195 160.311 81.0195Z" fill="#FC3314"/>
<path d="M219.674 67.3916C219.674 73.1871 218.742 79.1402 215.309 81.8258V74.0334C215.309 72.2722 214.61 70.5831 213.365 69.3377C212.121 68.0924 210.433 67.3927 208.673 67.3927H205.563V97.1528H215.313V96.1446C215.315 94.6221 214.959 93.1206 214.275 91.7607C213.591 90.4007 212.598 89.2203 211.375 88.3143C210.445 87.6204 209.69 86.7186 209.17 85.6809C208.65 84.6432 208.38 83.4982 208.381 82.3375V71.4201H209.82C210.296 71.4202 210.765 71.5314 211.19 71.7448C211.615 71.9582 211.984 72.268 212.269 72.6495C212.553 73.0309 212.744 73.4735 212.828 73.942C212.911 74.4105 212.884 74.892 212.748 75.3482L211.729 78.7829C211.222 80.4891 210.964 82.2597 210.964 84.0398C210.964 84.6623 211.211 85.2595 211.651 85.6999C212.09 86.1403 212.687 86.388 213.309 86.3886H217.334L222.371 75.5489C222.371 75.5489 223.072 89.7597 217.336 97.1528H224.55V67.3916H219.674Z" fill="#FC3314"/>
<path d="M253.116 67.532V68.8197C253.116 68.8197 264.358 74.2504 257.647 90.6902C257.647 90.6902 256.519 70.5479 245.21 67.3916H242.104V97.1484H252.073C252.073 92.4347 250.351 87.8836 247.231 84.3517C245.931 82.8781 245.213 80.9806 245.21 79.015V71.8249C245.21 71.8249 247.287 77.9496 250.928 82.127C254.252 85.9471 255.898 92.0287 255.794 97.0934V97.211H263.51V67.532H253.116Z" fill="#FC3314"/>
<path d="M77.4405 105.686L72.8816 110.253V134.487H87.8464L92.4043 129.926V105.686H77.4405ZM87.8777 120.083C86.2972 120.923 84.9748 122.177 84.0527 123.711C83.1305 125.245 82.6434 127.002 82.6435 128.792V129.1C82.6435 129.444 82.5758 129.784 82.4442 130.102C82.3127 130.42 82.12 130.708 81.8769 130.952C81.6339 131.195 81.3454 131.388 81.0279 131.519C80.7104 131.651 80.37 131.719 80.0263 131.719C79.6827 131.719 79.3423 131.651 79.0248 131.519C78.7073 131.388 78.4188 131.195 78.1758 130.952C77.9327 130.708 77.74 130.42 77.6084 130.102C77.4769 129.784 77.4092 129.444 77.4092 129.1V120.083C78.9535 119.467 80.2777 118.402 81.2108 117.025C82.1438 115.648 82.6429 114.022 82.6435 112.359V111.064C82.6435 110.369 82.9192 109.703 83.41 109.212C83.9008 108.721 84.5665 108.445 85.2606 108.445C85.9547 108.445 86.6204 108.721 87.1112 109.212C87.602 109.703 87.8777 110.369 87.8777 111.064V120.083Z" fill="#FC3314"/>
<path d="M115.198 105.918H101.116V110.883C101.115 111.611 101.361 112.318 101.813 112.888C102.265 113.459 102.896 113.859 103.604 114.025C104.312 114.191 105.056 114.112 105.714 113.801C106.371 113.49 106.905 112.966 107.227 112.314L108.55 109.638C108.903 108.924 109.448 108.324 110.124 107.904C110.8 107.485 111.58 107.262 112.376 107.263C112.839 107.263 113.297 107.355 113.724 107.533C114.151 107.71 114.54 107.97 114.866 108.298C115.193 108.626 115.452 109.015 115.629 109.443C115.805 109.871 115.896 110.33 115.895 110.793V110.911C115.895 111.557 115.768 112.196 115.521 112.792C115.274 113.389 114.912 113.931 114.456 114.387C114 114.843 113.458 115.205 112.862 115.452C112.266 115.699 111.627 115.826 110.982 115.826H101.116C110.577 125.294 101.116 134.485 101.116 134.485H109.725V123.379H115.198C116.559 123.378 117.864 122.836 118.825 121.872C119.787 120.909 120.326 119.602 120.326 118.241V111.054C120.326 109.693 119.786 108.387 118.824 107.424C117.863 106.461 116.559 105.919 115.198 105.918Z" fill="#FC3314"/>
<path d="M153.211 127.703V127.696" stroke="#1F1F1F" stroke-width="0.62623" stroke-miterlimit="10"/>
<path d="M174.789 114.402V110.173C174.79 109.614 174.68 109.061 174.466 108.544C174.253 108.028 173.94 107.559 173.545 107.164C173.15 106.768 172.681 106.455 172.165 106.241C171.649 106.027 171.095 105.918 170.537 105.918H155.669V135.063H165.507V122.713C170.145 129.216 166.94 135.058 166.94 135.058H174.789C174.789 123.37 168.346 119.592 166.198 118.657H170.537C171.095 118.658 171.649 118.548 172.165 118.334C172.681 118.12 173.15 117.807 173.545 117.412C173.94 117.017 174.253 116.547 174.466 116.031C174.68 115.515 174.79 114.961 174.789 114.402ZM170.139 111.07C169.369 111.424 168.345 112.183 168.345 113.732V116.274H166.043V108.295H169.533C169.864 108.295 170.185 108.408 170.444 108.616C170.702 108.824 170.881 109.114 170.952 109.438C171.023 109.762 170.981 110.101 170.833 110.398C170.685 110.694 170.44 110.932 170.139 111.07Z" fill="#FC3314"/>
<path d="M231.503 105.523V110.291L228.448 113.348C227.62 114.177 226.175 114.035 225.632 112.998C225.499 112.747 225.43 112.467 225.43 112.183V107.471H224.39V135.058H216.329V133.893C216.329 129.064 217.389 124.327 219.124 119.822C219.612 118.555 219.968 116.718 219.968 114.055V107.47H214.466V108.491C215.544 108.89 216.474 109.609 217.132 110.552C217.789 111.496 218.141 112.618 218.142 113.768V113.983C218.142 115.476 217.55 116.908 216.496 117.964C215.441 119.02 214.011 119.615 212.519 119.616V105.519L231.503 105.523Z" fill="#FC3314"/>
<path d="M254.339 105.523V107.672C255.551 107.672 256.723 108.102 257.649 108.884C258.575 109.666 259.194 110.751 259.398 111.947C259.601 113.142 259.375 114.371 258.759 115.416C258.144 116.46 257.179 117.253 256.036 117.655C255.632 117.783 255.243 117.955 254.876 118.167C253.232 119.184 249.461 122.499 249.461 131.499H246.913V128.693C246.913 126.176 247.677 123.719 249.105 121.647L251.362 118.371C252.209 117.14 252.703 115.701 252.792 114.21C252.88 112.718 252.56 111.231 251.866 109.908C251.172 108.585 250.13 107.477 248.852 106.704C247.575 105.93 246.11 105.52 244.617 105.519H243.061V135.058H256.255C256.083 134.348 255.997 133.62 255.998 132.89C255.997 130.891 256.629 128.942 257.803 127.325C258.978 125.707 260.634 124.503 262.534 123.886V105.523H254.339Z" fill="#FC3314"/>
<path d="M89.0649 143.737H84.369C84.369 146.883 85.3992 149.961 87.3896 152.4C88.4896 153.735 89.0846 155.414 89.0703 157.143V170.771H87.2364L81.2783 143.737H73.2834L78.3537 166.78C78.6838 168.28 79.5162 169.622 80.713 170.584C81.9098 171.546 83.3991 172.07 84.9343 172.069H92.3994V143.737H89.0649Z" fill="#FC3314"/>
<path d="M118.986 143.737H112.412V144.108C112.412 147.778 113.765 151.291 116.109 154.116C117.605 155.919 118.986 158.235 118.986 160.634V168.556C118.986 168.556 112.781 164.058 112.781 154.492H112.645C112.182 154.492 111.724 154.583 111.297 154.76C110.87 154.937 110.482 155.197 110.155 155.524C109.828 155.851 109.569 156.239 109.392 156.666C109.215 157.094 109.124 157.552 109.124 158.015C109.123 159.736 109.54 161.431 110.337 162.956C111.039 164.298 111.405 165.789 111.405 167.303V170.1H110.06C108.377 164.764 104.487 149.976 110.717 143.735H101.116C101.116 143.735 108.792 164.385 101.116 172.067H113.083V161.105L116.369 172.067H121.397V143.737H118.986Z" fill="#FC3314"/>
<path d="M141.716 159.499L147.351 172.155H142.241L142.223 172.111C143.469 171.422 144.614 164.624 139.436 164.624L137.652 168.628C138.059 167.707 139.436 168.001 139.436 169.003V172.155H129.596L132.703 164.993C134.058 161.869 134.718 158.487 134.638 155.082C134.382 154.511 133.966 154.027 133.439 153.689C132.912 153.352 132.298 153.176 131.672 153.183C130.536 153.205 129.628 152.229 129.628 151.091V148.932C129.629 147.577 130.168 146.277 131.127 145.319C132.086 144.361 133.385 143.823 134.74 143.823C134.74 155.118 137.024 155.31 138.308 154.524C138.788 154.217 139.164 153.771 139.387 153.246L141.706 148.04C143.216 144.657 139.828 143.823 139.828 143.823H148.69L141.716 159.499Z" fill="#FC3314"/>
<path d="M170.509 143.735H167.338V144.108C167.34 145.618 167.767 147.096 168.568 148.374C167.743 150.347 166.863 152.451 166.386 153.588C166.284 153.831 166.117 154.042 165.902 154.195C165.688 154.349 165.435 154.441 165.172 154.459C164.909 154.478 164.646 154.423 164.412 154.301C164.178 154.178 163.983 153.994 163.848 153.767C163.075 152.472 162.458 149.601 162.458 143.735C161.103 143.735 159.804 144.274 158.845 145.233C157.887 146.192 157.349 147.492 157.349 148.848V153.862C158.656 152.833 160.125 152.926 161.181 153.614C161.7 153.948 162.109 154.428 162.359 154.992C162.922 156.258 163.221 157.625 163.237 159.01C163.254 160.395 162.987 161.769 162.454 163.047L158.656 172.153H168.494L180.348 143.733L170.509 143.735Z" fill="#FC3314"/>
<path d="M189.666 167.679C193.585 154.892 205.564 154.391 205.564 154.391V162.081C205.565 162.428 205.474 162.769 205.299 163.069C205.124 163.368 204.872 163.616 204.569 163.785C204.266 163.954 203.924 164.039 203.577 164.031C203.23 164.023 202.892 163.922 202.597 163.739C202.01 163.377 201.352 163.145 200.668 163.058C199.984 162.972 199.289 163.033 198.63 163.237C197.971 163.442 197.364 163.785 196.849 164.244C196.334 164.703 195.923 165.267 195.644 165.898L192.884 172.149H186.519V162.744L197.882 146.135H193.998C193.998 147.437 193.587 148.707 192.823 149.762C192.059 150.817 190.981 151.604 189.744 152.01L186.315 153.134V143.823H205.569V149.8C202.488 150.647 200.003 151.851 198 153.254C189.86 158.923 189.666 167.679 189.666 167.679Z" fill="#FC3314"/>
</g>
<defs>
<clipPath id="clip0_302_405">
<rect width="191" height="142.154" fill="white" transform="translate(72.5 30)"/>
</clipPath>
</defs>
</svg>
