<svg width="162" height="54" viewBox="0 0 162 54" fill="none" xmlns="http://www.w3.org/2000/svg">
<path d="M16.8111 21.0156C16.6918 19.8991 16.1889 19.0298 15.3026 18.4077C14.4247 17.7855 13.2827 17.4744 11.8764 17.4744C10.8878 17.4744 10.0398 17.6236 9.33239 17.9219C8.625 18.2202 8.08381 18.625 7.70881 19.1364C7.33381 19.6477 7.14205 20.2315 7.13352 20.8878C7.13352 21.4332 7.2571 21.9062 7.50426 22.3068C7.75994 22.7074 8.10511 23.0483 8.53977 23.3295C8.97443 23.6023 9.45597 23.8324 9.98438 24.0199C10.5128 24.2074 11.0455 24.3651 11.5824 24.4929L14.0369 25.1065C15.0256 25.3366 15.9759 25.6477 16.8878 26.0398C17.8082 26.4318 18.6307 26.9261 19.3551 27.5227C20.0881 28.1193 20.6676 28.8395 21.0938 29.6832C21.5199 30.527 21.733 31.5156 21.733 32.6491C21.733 34.1832 21.3409 35.5341 20.5568 36.7017C19.7727 37.8608 18.6392 38.7685 17.1562 39.4247C15.6818 40.0724 13.8963 40.3963 11.7997 40.3963C9.76278 40.3963 7.99432 40.081 6.49432 39.4503C5.00284 38.8196 3.83523 37.8991 2.99148 36.6889C2.15625 35.4787 1.70455 34.0043 1.63636 32.2656H6.30256C6.37074 33.1776 6.65199 33.9361 7.14631 34.5412C7.64063 35.1463 8.28409 35.598 9.0767 35.8963C9.87784 36.1946 10.7727 36.3438 11.7614 36.3438C12.7926 36.3438 13.696 36.1903 14.4716 35.8835C15.2557 35.5682 15.8693 35.1335 16.3125 34.5795C16.7557 34.017 16.9815 33.3608 16.9901 32.6108C16.9815 31.929 16.7813 31.3665 16.3892 30.9233C15.9972 30.4716 15.4474 30.0966 14.7401 29.7983C14.0412 29.4915 13.223 29.2187 12.2855 28.9801L9.30682 28.2131C7.15057 27.6591 5.44602 26.8196 4.19318 25.6946C2.94886 24.5611 2.3267 23.0568 2.3267 21.1818C2.3267 19.6392 2.74432 18.2884 3.57955 17.1293C4.4233 15.9702 5.5696 15.071 7.01847 14.4318C8.46733 13.7841 10.108 13.4602 11.9403 13.4602C13.7983 13.4602 15.4261 13.7841 16.8239 14.4318C18.2301 15.071 19.3338 15.9616 20.1349 17.1037C20.9361 18.2372 21.3494 19.5412 21.375 21.0156H16.8111Z" fill="white"/>
<path d="M28.3708 13.8182H33.0754V32.2273C33.0669 33.9148 32.7089 35.3679 32.0015 36.5866C31.2941 37.7969 30.3055 38.7301 29.0356 39.3864C27.7742 40.0341 26.3041 40.358 24.6251 40.358C23.091 40.358 21.7103 40.0852 20.4831 39.5398C19.2643 38.9858 18.297 38.1676 17.5811 37.0852C16.8652 36.0028 16.5072 34.6562 16.5072 33.0455H21.2245C21.2331 33.7528 21.3865 34.3622 21.6848 34.8736C21.9916 35.3849 22.4135 35.777 22.9504 36.0497C23.4873 36.3224 24.1052 36.4588 24.8041 36.4588C25.5626 36.4588 26.2061 36.3011 26.7345 35.9858C27.2629 35.6619 27.6635 35.1847 27.9362 34.554C28.2174 33.9233 28.3623 33.1477 28.3708 32.2273V13.8182Z" fill="#FC3314"/>
<path d="M51.4545 40H42.5824V13.8182H51.6335C54.233 13.8182 56.4659 14.3423 58.3324 15.3906C60.2074 16.4304 61.6477 17.9261 62.6534 19.8778C63.6591 21.8295 64.1619 24.1648 64.1619 26.8835C64.1619 29.6108 63.6548 31.9545 62.6406 33.9148C61.6349 35.875 60.1818 37.3793 58.2812 38.4276C56.3892 39.4759 54.1136 40 51.4545 40ZM47.3253 35.8963H51.2244C53.0483 35.8963 54.5696 35.5639 55.7884 34.8991C57.0071 34.2259 57.9233 33.2244 58.5369 31.8949C59.1506 30.5568 59.4574 28.8864 59.4574 26.8835C59.4574 24.8807 59.1506 23.2187 58.5369 21.8977C57.9233 20.5682 57.0156 19.5753 55.8139 18.919C54.6207 18.2543 53.1378 17.9219 51.3651 17.9219H47.3253V35.8963ZM77.157 40.3835C75.1882 40.3835 73.4879 39.9744 72.0561 39.1562C70.6328 38.3295 69.5376 37.1619 68.7706 35.6534C68.0036 34.1364 67.62 32.3509 67.62 30.2969C67.62 28.277 68.0036 26.5043 68.7706 24.9787C69.5462 23.4446 70.6286 22.2514 72.0178 21.3991C73.407 20.5384 75.0391 20.108 76.9141 20.108C78.1243 20.108 79.2663 20.304 80.3402 20.696C81.4226 21.0795 82.3771 21.6761 83.2038 22.4858C84.0391 23.2955 84.6953 24.3267 85.1726 25.5795C85.6499 26.8239 85.8885 28.3068 85.8885 30.0284V31.4474H69.7933V28.3281H81.4524C81.4439 27.4418 81.2521 26.6534 80.8771 25.9631C80.5021 25.2642 79.978 24.7145 79.3047 24.3139C78.6399 23.9134 77.8643 23.7131 76.978 23.7131C76.032 23.7131 75.201 23.9432 74.4851 24.4034C73.7692 24.8551 73.2109 25.4517 72.8104 26.1932C72.4183 26.9261 72.218 27.7315 72.2095 28.6094V31.3324C72.2095 32.4744 72.4183 33.4545 72.8359 34.2727C73.2536 35.0824 73.8374 35.7045 74.5874 36.1392C75.3374 36.5653 76.2152 36.7784 77.2209 36.7784C77.8942 36.7784 78.5036 36.6847 79.049 36.4972C79.5945 36.3011 80.0675 36.0156 80.468 35.6406C80.8686 35.2656 81.1712 34.8011 81.3757 34.2472L85.6967 34.733C85.424 35.875 84.9041 36.8722 84.1371 37.7244C83.3786 38.5682 82.407 39.2244 81.2223 39.6932C80.0376 40.1534 78.6825 40.3835 77.157 40.3835ZM105.324 25.554L101.105 26.0142C100.985 25.5881 100.777 25.1875 100.478 24.8125C100.189 24.4375 99.7965 24.1349 99.3022 23.9048C98.8079 23.6747 98.2028 23.5597 97.4869 23.5597C96.5238 23.5597 95.7141 23.7685 95.0579 24.1861C94.4102 24.6037 94.0906 25.1449 94.0991 25.8097C94.0906 26.3807 94.2994 26.8452 94.7255 27.2031C95.1602 27.5611 95.8761 27.8551 96.8732 28.0852L100.223 28.8011C102.081 29.2017 103.461 29.8366 104.365 30.706C105.277 31.5753 105.737 32.7131 105.745 34.1193C105.737 35.3551 105.375 36.446 104.659 37.392C103.951 38.3295 102.967 39.0625 101.706 39.5909C100.444 40.1193 98.9954 40.3835 97.359 40.3835C94.9556 40.3835 93.021 39.8807 91.555 38.875C90.0891 37.8608 89.2156 36.4503 88.9343 34.6435L93.4471 34.2088C93.6516 35.0952 94.0863 35.7642 94.7511 36.2159C95.4158 36.6676 96.2809 36.8935 97.3462 36.8935C98.4457 36.8935 99.3278 36.6676 99.9925 36.2159C100.666 35.7642 101.002 35.206 101.002 34.5412C101.002 33.9787 100.785 33.5142 100.35 33.1477C99.9244 32.7812 99.2596 32.5 98.3562 32.304L95.0067 31.6009C93.1232 31.2088 91.7298 30.5483 90.8263 29.6193C89.9229 28.6818 89.4755 27.4972 89.484 26.0653C89.4755 24.8551 89.8036 23.8068 90.4684 22.9205C91.1417 22.0256 92.0749 21.3352 93.2681 20.8494C94.4698 20.3551 95.8548 20.108 97.4229 20.108C99.7241 20.108 101.535 20.598 102.856 21.5781C104.186 22.5582 105.008 23.8835 105.324 25.554ZM109.561 40V20.3636H114.189V40H109.561ZM111.888 17.5767C111.155 17.5767 110.525 17.3338 109.996 16.848C109.468 16.3537 109.203 15.7614 109.203 15.071C109.203 14.3722 109.468 13.7798 109.996 13.294C110.525 12.7997 111.155 12.5526 111.888 12.5526C112.63 12.5526 113.26 12.7997 113.78 13.294C114.309 13.7798 114.573 14.3722 114.573 15.071C114.573 15.7614 114.309 16.3537 113.78 16.848C113.26 17.3338 112.63 17.5767 111.888 17.5767ZM127.488 47.7727C125.826 47.7727 124.398 47.5469 123.205 47.0952C122.012 46.652 121.053 46.0554 120.329 45.3054C119.604 44.5554 119.102 43.7244 118.82 42.8125L122.988 41.8026C123.175 42.1861 123.448 42.5653 123.806 42.9403C124.164 43.3239 124.646 43.6392 125.251 43.8864C125.864 44.142 126.636 44.2699 127.565 44.2699C128.877 44.2699 129.964 43.9503 130.825 43.3111C131.685 42.6804 132.116 41.6406 132.116 40.1918V36.4716H131.886C131.647 36.9489 131.298 37.4389 130.837 37.9418C130.386 38.4446 129.785 38.8665 129.035 39.2074C128.293 39.5483 127.36 39.7188 126.235 39.7188C124.727 39.7188 123.359 39.3651 122.131 38.6577C120.913 37.9418 119.941 36.8764 119.217 35.4616C118.501 34.0384 118.143 32.2571 118.143 30.1179C118.143 27.9616 118.501 26.142 119.217 24.6591C119.941 23.1676 120.917 22.0384 122.144 21.2713C123.371 20.4957 124.739 20.108 126.248 20.108C127.398 20.108 128.344 20.304 129.086 20.696C129.836 21.0795 130.433 21.544 130.876 22.0895C131.319 22.6264 131.656 23.1335 131.886 23.6108H132.141V20.3636H136.705V40.3196C136.705 41.9986 136.305 43.3878 135.504 44.4872C134.702 45.5866 133.607 46.4091 132.218 46.9545C130.829 47.5 129.252 47.7727 127.488 47.7727ZM127.526 36.0881C128.506 36.0881 129.342 35.8494 130.032 35.3722C130.722 34.8949 131.246 34.2088 131.604 33.3139C131.962 32.419 132.141 31.3452 132.141 30.0923C132.141 28.8565 131.962 27.7741 131.604 26.8452C131.255 25.9162 130.735 25.196 130.045 24.6847C129.363 24.1648 128.523 23.9048 127.526 23.9048C126.495 23.9048 125.634 24.1733 124.944 24.7102C124.254 25.2472 123.734 25.9844 123.384 26.9219C123.035 27.8509 122.86 28.9077 122.86 30.0923C122.86 31.294 123.035 32.3466 123.384 33.25C123.742 34.1449 124.266 34.8437 124.957 35.3466C125.656 35.8409 126.512 36.0881 127.526 36.0881ZM146.076 28.4943V40H141.448V20.3636H145.871V23.7003H146.102C146.553 22.6009 147.273 21.7273 148.262 21.0795C149.259 20.4318 150.491 20.108 151.957 20.108C153.312 20.108 154.492 20.3977 155.498 20.9773C156.512 21.5568 157.296 22.3963 157.85 23.4957C158.413 24.5952 158.69 25.929 158.681 27.4972V40H154.053V28.2131C154.053 26.9006 153.712 25.8736 153.031 25.1321C152.357 24.3906 151.424 24.0199 150.231 24.0199C149.421 24.0199 148.701 24.1989 148.07 24.5568C147.448 24.9062 146.958 25.4134 146.6 26.0781C146.251 26.7429 146.076 27.5483 146.076 28.4943Z" fill="#FC3314"/>
</svg>
