<svg width="135" height="45" viewBox="0 0 135 45" fill="none" xmlns="http://www.w3.org/2000/svg">
<path d="M14.0092 17.1797C13.9098 16.2493 13.4908 15.5249 12.7521 15.0064C12.0206 14.4879 11.0689 14.2287 9.89702 14.2287C9.07315 14.2287 8.36648 14.353 7.77699 14.6016C7.1875 14.8501 6.73651 15.1875 6.42401 15.6136C6.11151 16.0398 5.9517 16.5263 5.9446 17.0732C5.9446 17.5277 6.04759 17.9219 6.25355 18.2557C6.46662 18.5895 6.75426 18.8736 7.11648 19.108C7.47869 19.3352 7.87997 19.527 8.32031 19.6832C8.76065 19.8395 9.20455 19.9709 9.65199 20.0774L11.6974 20.5888C12.5213 20.7805 13.3132 21.0398 14.0732 21.3665C14.8402 21.6932 15.5256 22.1051 16.1293 22.6023C16.7401 23.0994 17.223 23.6996 17.5781 24.4027C17.9332 25.1058 18.1108 25.9297 18.1108 26.8743C18.1108 28.1527 17.7841 29.2784 17.1307 30.2514C16.4773 31.2173 15.5327 31.9737 14.2969 32.5206C13.0682 33.0604 11.5803 33.3303 9.8331 33.3303C8.13565 33.3303 6.66193 33.0675 5.41193 32.5419C4.16903 32.0163 3.19602 31.2493 2.4929 30.2408C1.79688 29.2322 1.42045 28.0036 1.36364 26.5547H5.25213C5.30895 27.3146 5.54332 27.9467 5.95526 28.451C6.36719 28.9553 6.90341 29.3317 7.56392 29.5803C8.23153 29.8288 8.97727 29.9531 9.80114 29.9531C10.6605 29.9531 11.4134 29.8253 12.0597 29.5696C12.7131 29.3068 13.2244 28.9446 13.5938 28.483C13.9631 28.0142 14.1513 27.4673 14.1584 26.8423C14.1513 26.2741 13.9844 25.8054 13.6577 25.4361C13.331 25.0597 12.8729 24.7472 12.2834 24.4986C11.701 24.2429 11.0192 24.0156 10.2379 23.8168L7.75568 23.1776C5.95881 22.7159 4.53835 22.0163 3.49432 21.0788C2.45739 20.1342 1.93892 18.8807 1.93892 17.3182C1.93892 16.0327 2.28693 14.907 2.98295 13.9411C3.68608 12.9751 4.64134 12.2259 5.84872 11.6932C7.05611 11.1534 8.4233 10.8835 9.95028 10.8835C11.4986 10.8835 12.8551 11.1534 14.0199 11.6932C15.1918 12.2259 16.1115 12.968 16.7791 13.9197C17.4467 14.8643 17.7912 15.951 17.8125 17.1797H14.0092Z" fill="#1F1F1F"/>
<path d="M23.6424 11.1818H27.5628V26.5227C27.5557 27.929 27.2574 29.1399 26.6679 30.1555C26.0784 31.1641 25.2546 31.9418 24.1963 32.4886C23.1452 33.0284 21.9201 33.2983 20.5209 33.2983C19.2425 33.2983 18.0919 33.071 17.0692 32.6165C16.0536 32.1548 15.2475 31.473 14.6509 30.571C14.0543 29.669 13.756 28.5469 13.756 27.2045H17.6871C17.6942 27.794 17.8221 28.3018 18.0706 28.728C18.3263 29.1541 18.6779 29.4808 19.1253 29.7081C19.5728 29.9354 20.0877 30.049 20.6701 30.049C21.3022 30.049 21.8384 29.9176 22.2787 29.6548C22.7191 29.3849 23.0529 28.9872 23.2801 28.4616C23.5145 27.9361 23.6353 27.2898 23.6424 26.5227V11.1818Z" fill="#FC3314"/>
<path d="M43.5455 33H36.152V11.1818H43.6946C45.8608 11.1818 47.7216 11.6186 49.277 12.4922C50.8395 13.3587 52.0398 14.6051 52.8778 16.2315C53.7159 17.858 54.1349 19.804 54.1349 22.0696C54.1349 24.3423 53.7124 26.2955 52.8672 27.929C52.0291 29.5625 50.8182 30.8161 49.2344 31.6896C47.6577 32.5632 45.7614 33 43.5455 33ZM40.1044 29.5803H43.3537C44.8736 29.5803 46.1413 29.3033 47.157 28.7493C48.1726 28.1882 48.9361 27.3537 49.4474 26.2457C49.9588 25.1307 50.2145 23.7386 50.2145 22.0696C50.2145 20.4006 49.9588 19.0156 49.4474 17.9148C48.9361 16.8068 48.1797 15.9794 47.1783 15.4325C46.1839 14.8786 44.9482 14.6016 43.4709 14.6016H40.1044V29.5803ZM64.9641 33.3196C63.3235 33.3196 61.9066 32.9787 60.7134 32.2969C59.5273 31.608 58.6147 30.6349 57.9755 29.3778C57.3363 28.1136 57.0167 26.6257 57.0167 24.9141C57.0167 23.2308 57.3363 21.7536 57.9755 20.4822C58.6218 19.2038 59.5238 18.2095 60.6815 17.4993C61.8391 16.782 63.1992 16.4233 64.7617 16.4233C65.7702 16.4233 66.7219 16.5866 67.6168 16.9134C68.5188 17.233 69.3143 17.7301 70.0032 18.4048C70.6992 19.0795 71.2461 19.9389 71.6438 20.983C72.0415 22.0199 72.2404 23.2557 72.2404 24.6903V25.8729H58.8278V23.2734H68.5437C68.5366 22.5348 68.3768 21.8778 68.0643 21.3026C67.7518 20.7202 67.315 20.2621 66.7539 19.9283C66.1999 19.5945 65.5536 19.4276 64.815 19.4276C64.0266 19.4276 63.3342 19.6193 62.7376 20.0028C62.141 20.3793 61.6758 20.8764 61.342 21.4943C61.0153 22.1051 60.8484 22.7763 60.8413 23.5078V25.777C60.8413 26.7287 61.0153 27.5455 61.3633 28.2273C61.7113 28.902 62.1978 29.4205 62.8228 29.7827C63.4478 30.1378 64.1793 30.3153 65.0174 30.3153C65.5785 30.3153 66.0863 30.2372 66.5408 30.081C66.9954 29.9176 67.3896 29.6797 67.7234 29.3672C68.0572 29.0547 68.3093 28.6676 68.4798 28.206L72.0806 28.6108C71.8533 29.5625 71.4201 30.3935 70.7809 31.1037C70.1488 31.8068 69.3391 32.3537 68.3519 32.7443C67.3647 33.1278 66.2354 33.3196 64.9641 33.3196ZM88.4363 20.9616L84.9206 21.3452C84.8212 20.9901 84.6472 20.6562 84.3986 20.3438C84.1571 20.0312 83.8304 19.7791 83.4185 19.5874C83.0066 19.3956 82.5023 19.2997 81.9057 19.2997C81.1032 19.2997 80.4284 19.4737 79.8816 19.8217C79.3418 20.1697 79.0755 20.6207 79.0826 21.1747C79.0755 21.6506 79.2495 22.0376 79.6046 22.3359C79.9668 22.6342 80.5634 22.8793 81.3944 23.071L84.1855 23.6676C85.7338 24.0014 86.8844 24.5305 87.6373 25.255C88.3972 25.9794 88.7807 26.9276 88.7878 28.0994C88.7807 29.1293 88.4789 30.0384 87.8823 30.8267C87.2928 31.608 86.4725 32.2187 85.4213 32.6591C84.3702 33.0994 83.1628 33.3196 81.7992 33.3196C79.7963 33.3196 78.1841 32.9006 76.9625 32.0625C75.7409 31.2173 75.013 30.0419 74.7786 28.5362L78.5392 28.174C78.7097 28.9126 79.0719 29.4702 79.6259 29.8466C80.1799 30.223 80.9007 30.4112 81.7885 30.4112C82.7047 30.4112 83.4398 30.223 83.9938 29.8466C84.5549 29.4702 84.8354 29.005 84.8354 28.451C84.8354 27.9822 84.6543 27.5952 84.2921 27.2898C83.937 26.9844 83.383 26.75 82.6301 26.5866L79.839 26.0007C78.2694 25.674 77.1081 25.1236 76.3553 24.3494C75.6025 23.5682 75.2296 22.581 75.2367 21.3878C75.2296 20.3793 75.503 19.5057 76.057 18.767C76.6181 18.0213 77.3958 17.446 78.3901 17.0412C79.3915 16.6293 80.5456 16.4233 81.8525 16.4233C83.7701 16.4233 85.2793 16.8317 86.3801 17.6484C87.4881 18.4652 88.1735 19.5696 88.4363 20.9616ZM91.9679 33V16.6364H95.8244V33H91.9679ZM93.9068 14.3139C93.296 14.3139 92.7704 14.1115 92.3301 13.7067C91.8897 13.2947 91.6696 12.8011 91.6696 12.2259C91.6696 11.6435 91.8897 11.1499 92.3301 10.745C92.7704 10.3331 93.296 10.1271 93.9068 10.1271C94.5247 10.1271 95.0502 10.3331 95.4835 10.745C95.9238 11.1499 96.144 11.6435 96.144 12.2259C96.144 12.8011 95.9238 13.2947 95.4835 13.7067C95.0502 14.1115 94.5247 14.3139 93.9068 14.3139ZM106.907 39.4773C105.522 39.4773 104.332 39.2891 103.338 38.9126C102.343 38.5433 101.544 38.0462 100.941 37.4212C100.337 36.7962 99.918 36.1037 99.6836 35.3438L103.157 34.5021C103.313 34.8217 103.54 35.1378 103.838 35.4503C104.137 35.7699 104.538 36.0327 105.042 36.2386C105.554 36.4517 106.196 36.5582 106.971 36.5582C108.064 36.5582 108.97 36.2919 109.687 35.7592C110.404 35.2337 110.763 34.3672 110.763 33.1598V30.0597H110.571C110.373 30.4574 110.081 30.8658 109.698 31.2848C109.321 31.7038 108.821 32.0554 108.196 32.3395C107.578 32.6236 106.8 32.7656 105.863 32.7656C104.605 32.7656 103.466 32.4709 102.443 31.8814C101.427 31.2848 100.618 30.397 100.014 29.218C99.4173 28.032 99.119 26.5476 99.119 24.7649C99.119 22.968 99.4173 21.4517 100.014 20.2159C100.618 18.973 101.431 18.032 102.453 17.3928C103.476 16.7464 104.616 16.4233 105.873 16.4233C106.832 16.4233 107.62 16.5866 108.238 16.9134C108.863 17.233 109.36 17.62 109.73 18.0746C110.099 18.522 110.38 18.9446 110.571 19.3423H110.784V16.6364H114.588V33.2663C114.588 34.6655 114.254 35.8232 113.586 36.7393C112.919 37.6555 112.006 38.3409 110.848 38.7955C109.691 39.25 108.377 39.4773 106.907 39.4773ZM106.939 29.7401C107.755 29.7401 108.451 29.5412 109.027 29.1435C109.602 28.7457 110.039 28.174 110.337 27.4283C110.635 26.6825 110.784 25.7876 110.784 24.7436C110.784 23.7138 110.635 22.8118 110.337 22.0376C110.046 21.2635 109.613 20.6634 109.037 20.2372C108.469 19.804 107.77 19.5874 106.939 19.5874C106.079 19.5874 105.362 19.8111 104.787 20.2585C104.211 20.706 103.778 21.3203 103.487 22.1016C103.196 22.8757 103.05 23.7564 103.05 24.7436C103.05 25.745 103.196 26.6222 103.487 27.375C103.785 28.1207 104.222 28.7031 104.797 29.1222C105.38 29.5341 106.093 29.7401 106.939 29.7401ZM122.397 23.4119V33H118.54V16.6364H122.226V19.4169H122.418C122.794 18.5007 123.395 17.7727 124.218 17.233C125.049 16.6932 126.076 16.4233 127.297 16.4233C128.426 16.4233 129.41 16.6648 130.248 17.1477C131.093 17.6307 131.747 18.3303 132.208 19.2464C132.677 20.1626 132.908 21.2741 132.901 22.581V33H129.044V23.1776C129.044 22.0838 128.76 21.228 128.192 20.6101C127.631 19.9922 126.853 19.6832 125.859 19.6832C125.184 19.6832 124.584 19.8324 124.059 20.1307C123.54 20.4219 123.132 20.8445 122.833 21.3984C122.542 21.9524 122.397 22.6236 122.397 23.4119Z" fill="#FC3314"/>
</svg>
